<?xml version="1.0" encoding="UTF-8" standalone="no"?>
<!DOCTYPE svg PUBLIC "-//W3C//DTD SVG 1.1//EN" "http://www.w3.org/Graphics/SVG/1.1/DTD/svg11.dtd">
<svg width="100%" height="100%" viewBox="0 0 576 576" version="1.1" xmlns="http://www.w3.org/2000/svg" xmlns:xlink="http://www.w3.org/1999/xlink" xml:space="preserve" xmlns:serif="http://www.serif.com/" style="fill-rule:evenodd;clip-rule:evenodd;stroke-linejoin:round;stroke-miterlimit:2;">
    <g transform="matrix(0.936682,0,0,0.936682,-191.21,-191.113)">
        <path d="M511.603,215C587.925,215 790.207,257.431 790,437.09C790,601.226 602.403,808 511.603,808C420.804,808 233.207,601.433 233.207,437.09C233.207,257.638 435.282,215 511.603,215ZM675.074,600.232L673.761,600.56L677.371,599.247L675.074,600.232L685.245,596.294L695.089,588.747L700.339,582.841L705.917,571.357L708.542,561.842L708.542,528.702L655.387,528.702L654.731,529.687L655.059,529.358L655.059,548.717L639.309,548.717L639.309,407.627L655.059,407.627L655.059,433.22L707.886,433.22L707.886,391.549L707.229,391.221L704.932,382.69L701.651,376.128L691.152,363.988L689.183,363.003L686.23,360.378L685.245,360.378L681.964,358.41L673.433,355.457L665.887,354.144L628.809,354.144L622.903,354.8L610.763,359.394L603.544,363.66L595.342,372.519L590.748,379.409L589.435,383.675L589.107,383.347L587.139,388.596L585.826,394.503L585.826,417.143L586.154,416.814L586.154,561.186L587.795,569.389L590.42,572.998L589.764,573.982L594.685,583.169L597.638,585.794L597.967,587.107L603.873,592.357L610.763,596.95L618.638,600.232L627.497,601.544L655.059,601.544L654.731,601.872L655.715,601.872L655.387,601.544L666.543,601.544L662.277,602.2L673.433,600.888L675.074,600.232ZM356.473,354.472L347.942,356.113L347.942,356.769L346.957,357.097L338.755,360.05L332.848,363.988L327.27,369.894L322.349,376.128L318.411,383.675L315.458,391.549L315.458,557.248L316.443,565.779L318.083,569.717L321.036,578.248L322.021,578.904L323.989,582.513L328.911,588.747L331.208,590.06L337.442,594.982L344.989,598.919L353.848,601.872L398.472,601.872L406.347,600.232L406.347,599.575L407.987,599.247L415.862,595.966L416.518,594.982L420.127,593.013L422.752,590.06L424.721,589.076L427.018,585.794L431.94,579.56L435.549,572.014L438.502,561.842L438.502,483.75L437.518,473.579L437.518,390.893L435.877,386.3L432.924,378.097L431.283,376.128L426.362,369.894L420.784,363.988L418.815,363.003L411.596,359.066L403.393,355.785L394.534,354.144L382.394,354.144L356.473,354.472ZM385.019,407.955L385.019,548.717L380.425,549.045L368.941,549.045L368.941,408.94L369.597,407.955L385.019,407.955ZM506.75,354.8L489.36,354.8L489.36,355.457L485.094,356.113L476.892,359.066L469.673,363.331L466.72,365.956L461.142,371.863L456.548,378.425L453.595,386.956L452.939,387.284L451.298,393.846L451.298,458.157L452.939,467.673L454.252,469.313L456.548,475.547L460.814,482.438L466.72,488.016L472.954,492.937L480.501,496.875L490.344,499.828L520.531,499.828L520.531,549.045L504.781,549.045L504.781,529.358L504.125,528.374L451.627,528.374L451.627,561.842L452.611,568.076L453.595,570.373L456.876,578.248L459.173,581.529L464.095,588.091L468.032,591.372L474.595,595.966L482.141,599.575L492.641,602.2L515.937,602.2L521.515,601.544L531.687,601.544L538.577,600.56L542.843,598.919L542.843,599.247L544.155,598.919L545.468,597.607L546.452,598.263L551.046,595.966L551.046,595.31L553.671,593.997L559.905,588.747L565.155,582.841L566.139,580.873L570.077,573.654L572.373,564.139L573.03,564.139L573.03,485.063L572.373,484.735L571.717,480.469L568.764,472.266L564.499,465.048L562.858,463.735L560.561,460.454L557.608,457.829L551.046,452.907L543.499,449.626L533.328,447.001L504.453,447.001L504.453,407.627L520.859,407.627L520.859,433.548L573.03,433.548L573.03,391.878L572.373,391.878L571.061,384.987L569.42,381.05L568.108,379.409L564.171,372.191L561.874,370.222L555.968,364.972L555.639,363.66L548.421,359.394L548.421,360.05L545.14,358.082L535.952,355.785L534.968,354.8L532.015,354.144L511.344,354.144L506.75,354.8Z" style="fill:rgb(226,226,226);"/>
    </g>
</svg>
